<svg id="Layer_2" data-name="Layer 2" xmlns="http://www.w3.org/2000/svg" viewBox="0 0 164.09 41.88"><defs><style>.cls-1{fill:#5186fe;}.cls-2{fill:#434c54;}</style></defs><title>logo-white</title><polygon class="cls-1" points="9.617 0 0.771 7.83 26.607 11.137 35.996 2.931 9.617 0"/><path class="cls-1" d="M9.471,0.233l0.145-.122V0.25L9.471,0.233h0ZM9.536,9.659L9.4,26.159,0,34.352,0.646,8.523Z" transform="translate(0)"/><polygon class="cls-1" points="26.81 37.772 35.654 29.943 9.82 26.637 0.429 34.841 26.81 37.772"/><path class="cls-1" d="M26.953,37.54l-0.145.122v-0.14l0.141,0.017h0Zm-0.064-9.426,0.138-16.5,9.4-8.2-0.645,25.83Z" transform="translate(0)"/><path class="cls-2" d="M85.852,4.707L78.5,32.539H71.548L66.925,14.683a14.835,14.835,0,0,1-.446-3.125H66.4a18.993,18.993,0,0,1-.5,3.125l-4.74,17.856h-7.24L46.608,4.707H53.46l3.921,18.535a22.2,22.2,0,0,1,.368,3.184h0.116a15.4,15.4,0,0,1,.563-3.261L63.474,4.707H70.19L74.751,23.4a22.844,22.844,0,0,1,.446,2.99h0.078a19.952,19.952,0,0,1,.408-3.1L79.525,4.707h6.327Z" transform="translate(0)"/><path class="cls-2" d="M105.572,24.349H92.607q0.311,4.328,5.454,4.328a10.652,10.652,0,0,0,5.764-1.554v4.425a15.152,15.152,0,0,1-7.161,1.475q-4.814,0-7.472-2.669a10.082,10.082,0,0,1-2.66-7.443A10.637,10.637,0,0,1,89.4,15.069a9.572,9.572,0,0,1,7.065-2.892,8.689,8.689,0,0,1,6.725,2.581,9.94,9.94,0,0,1,2.378,7.006v2.585Zm-5.686-3.766q0-4.27-3.456-4.27a3.3,3.3,0,0,0-2.551,1.222,5.549,5.549,0,0,0-1.31,3.047h7.317Z" transform="translate(0)"/><path class="cls-2" d="M115.431,30.23h-0.077v2.31h-6.129V3.115h6.133V15.654h0.077A7.28,7.28,0,0,1,121.9,12.18a7.1,7.1,0,0,1,5.92,2.64,11.386,11.386,0,0,1,2.076,7.221,12.328,12.328,0,0,1-2.425,7.976,7.9,7.9,0,0,1-6.483,3.009A6.265,6.265,0,0,1,115.431,30.23Zm-0.175-8.385v2.038a4.648,4.648,0,0,0,1.107,3.183,3.6,3.6,0,0,0,2.833,1.262,3.759,3.759,0,0,0,3.251-1.62,7.821,7.821,0,0,0,1.155-4.59,6.224,6.224,0,0,0-1.058-3.853,3.568,3.568,0,0,0-3.017-1.388,3.9,3.9,0,0,0-3.058,1.378,5.237,5.237,0,0,0-1.212,3.59h0Z" transform="translate(0)"/><path class="cls-2" d="M140,32.539H133.87V3.115H140V32.539Z" transform="translate(0)"/><path class="cls-2" d="M164.09,12.665l-8.075,21.466q-2.911,7.744-8.772,7.744a11.237,11.237,0,0,1-3.668-.5v-4.9a5.157,5.157,0,0,0,2.659.718,3.323,3.323,0,0,0,3.3-2.232l1.048-2.466-8.073-19.836H149.3l3.707,12.092a15.676,15.676,0,0,1,.544,2.659h0.072a18.687,18.687,0,0,1,.641-2.619l3.746-12.131h6.078Z" transform="translate(0)"/></svg>